<?xml version="1.0" encoding="UTF-8" standalone="no"?>
<svg width="308px" height="57px" viewBox="0 0 308 57" version="1.1" xmlns="http://www.w3.org/2000/svg" xmlns:xlink="http://www.w3.org/1999/xlink" xmlns:sketch="http://www.bohemiancoding.com/sketch/ns">
    <title>reddit-logo</title>
    <description>Created with Sketch (http://www.bohemiancoding.com/sketch)</description>
    <defs></defs>
    <g id="Page-1" stroke="none" stroke-width="1" fill="none" fill-rule="evenodd" sketch:type="MSPage">
        <g id="reddit-logo" sketch:type="MSLayerGroup" transform="translate(5.000000, 10.000000)">
            <g id="g22188" sketch:type="MSShapeGroup">
                <ellipse id="ellipse22054" stroke="#000000" stroke-width="1.10000002" fill="#FFFFFF" cx="18.348" cy="28.597" rx="4.4120002" ry="5.3239999"></ellipse>
                <g id="g22056" transform="translate(5.000000, 36.000000)">
                    <g id="g22058" fill="#FFFFFF">
                        <path d="M6.406,3.464 C6.469,3.267 6.514,3.063 6.514,2.849 C6.514,1.489 5.153,0.385 3.474,0.385 C1.795,0.385 0.435,1.489 0.435,2.849 C0.435,3.063 0.479,3.267 0.543,3.464 L6.406,3.464 L6.406,3.464 L6.406,3.464 L6.406,3.464 Z" id="path22060"></path>
                    </g>
                    <g id="g22062" stroke="#000000" stroke-width="1.10000002">
                        <path d="M6.406,3.464 C6.469,3.267 6.514,3.063 6.514,2.849 C6.514,1.489 5.153,0.385 3.474,0.385 C1.795,0.385 0.435,1.489 0.435,2.849 C0.435,3.063 0.479,3.267 0.543,3.464 L6.406,3.464 L6.406,3.464 L6.406,3.464 L6.406,3.464 Z" id="path22064"></path>
                    </g>
                </g>
                <g id="g22066" transform="translate(16.000000, 36.000000)">
                    <g id="g22068" fill="#FFFFFF">
                        <path d="M6.052,3.464 C6.115,3.267 6.159,3.063 6.159,2.849 C6.159,1.489 4.798,0.385 3.118,0.385 C1.439,0.385 0.079,1.489 0.079,2.849 C0.079,3.063 0.122,3.267 0.186,3.464 L6.052,3.464 L6.052,3.464 L6.052,3.464 L6.052,3.464 Z" id="path22070"></path>
                    </g>
                    <g id="g22072" stroke="#000000" stroke-width="1.10000002">
                        <path d="M6.052,3.464 C6.115,3.267 6.159,3.063 6.159,2.849 C6.159,1.489 4.798,0.385 3.118,0.385 C1.439,0.385 0.079,1.489 0.079,2.849 C0.079,3.063 0.122,3.267 0.186,3.464 L6.052,3.464 L6.052,3.464 L6.052,3.464 L6.052,3.464 Z" id="path22074"></path>
                    </g>
                </g>
                <circle id="circle22076" stroke="#000000" stroke-width="1.10000002" fill="#FFFFFF" cx="2.7870002" cy="12.014" r="2.7019999"></circle>
                <circle id="circle22078" stroke="#000000" stroke-width="1.10000002" fill="#FFFFFF" cx="24.889" cy="12.014" r="2.7019999"></circle>
                <path d="M21.329,2.53 C21.329,2.53 21.329,2.53 15.925,1.258 L13.939,7.536" id="path22080" stroke="#000000" stroke-width="1.10000002"></path>
                <ellipse id="ellipse22082" stroke="#000000" stroke-width="1.10000002" fill="#FFFFFF" cx="9.25" cy="28.597" rx="4.4109998" ry="5.3239999"></ellipse>
                <circle id="circle22084" stroke="#000000" stroke-width="1.10000002" fill="#FFFFFF" cx="23.534" cy="2.967" r="2.1300001"></circle>
                <g id="g22086" transform="translate(7.000000, 14.000000)">
                    <g id="g22088" fill="#FFFFFF">
                        <path d="M5.284,25.467 L8.274,25.467 C10.93,24.085 12.898,19.127 12.898,13.206 C12.898,6.216 10.158,0.55 6.779,0.55 C3.399,0.55 0.66,6.216 0.66,13.206 C0.66,19.127 2.628,24.085 5.284,25.467 C5.284,25.467 2.628,24.085 5.284,25.467 L5.284,25.467 L5.284,25.467 Z" id="path22090"></path>
                    </g>
                    <g id="g22092" stroke="#000000" stroke-width="1.10000002">
                        <path d="M5.284,25.467 L8.274,25.467 C10.93,24.085 12.898,19.127 12.898,13.206 C12.898,6.216 10.158,0.55 6.779,0.55 C3.399,0.55 0.66,6.216 0.66,13.206 C0.66,19.127 2.628,24.085 5.284,25.467 C5.284,25.467 2.628,24.085 5.284,25.467 L5.284,25.467 L5.284,25.467 Z" id="path22094"></path>
                    </g>
                </g>
                <ellipse id="ellipse22096" stroke="#000000" stroke-width="1.10000002" fill="#FFFFFF" cx="13.778999" cy="15.73" rx="12.239" ry="7.9860001"></ellipse>
                <path d="M10.56,39.464001 L17.156,39.464001" id="line22098" stroke="#000000" stroke-width="1.10000002"></path>
                <g id="g22116" transform="translate(7.000000, 12.000000)">
                    <path d="M2.53125,0.1875 C1.444241,0.1875 0.5625,1.06924 0.5625,2.15625 C0.5625,3.243259 1.444241,4.15625 2.53125,4.15625 C3.618259,4.15625 4.5,3.243259 4.5,2.15625 C4.5,1.06924 3.618259,0.1875 2.53125,0.1875 L2.53125,0.1875 L2.53125,0.1875 L2.53125,0.1875 Z" id="circle22118" fill="#FF4500"></path>
                    <path d="M11.15625,0.1875 C10.069241,0.1875 9.1875,1.06924 9.1875,2.15625 C9.1875,3.243259 10.069241,4.15625 11.15625,4.15625 C12.243259,4.15625 13.125,3.243259 13.125,2.15625 C13.125,1.06924 12.243259,0.1875 11.15625,0.1875 L11.15625,0.1875 L11.15625,0.1875 L11.15625,0.1875 Z" id="circle22120" fill="#FF4500"></path>
                    <path d="M2.61,7.407 C3.676,8.473 5.396,8.678 6.822,8.678" id="path22122" stroke="#000000" stroke-width="1.10000002"></path>
                    <path d="M11.065,7.407 C9.998,8.473 8.28,8.678 6.853,8.678" id="path22124" stroke="#000000" stroke-width="1.10000002"></path>
                </g>
            </g>
            <g id="g22218-+-guess-that-sub" transform="translate(35.000000, 11.000000)">
                <g id="g22218" transform="translate(190.000000, 4.000000)" stroke="#000000" sketch:type="MSShapeGroup">
                    <g id="g22100" stroke-width="0.59850001" fill="#000000">
                        <path d="M0.688,9.585 C0.688,9.141 0.821,8.788 1.089,8.526 C1.357,8.266 1.681,8.134 2.062,8.134 C2.451,8.134 2.783,8.262 3.056,8.517 C3.33,8.776 3.467,9.129 3.467,9.584 L3.467,11.025 L3.53,11.025 C3.951,10.289 4.503,9.624 5.19,9.029 C5.877,8.435 6.597,8.122 7.349,8.091 C7.771,8.091 8.143,8.232 8.469,8.507 C8.795,8.784 8.96,9.127 8.96,9.539 C8.96,10.02 8.793,10.374 8.458,10.601 C8.124,10.829 7.639,11.024 7.002,11.188 C6.365,11.354 5.953,11.487 5.764,11.591 C4.233,12.421 3.468,13.842 3.468,15.853 L3.468,24.129 C3.468,24.588 3.34,24.944 3.081,25.196 C2.823,25.449 2.504,25.575 2.124,25.575 C1.724,25.575 1.384,25.443 1.106,25.178 C0.827,24.911 0.689,24.538 0.689,24.063 L0.689,9.585 L0.689,9.585 L0.688,9.585 L0.688,9.585 Z" id="path22102"></path>
                        <path d="M9.666,16.681 C9.728,15.221 10.064,13.838 10.67,12.527 C11.277,11.218 12.143,10.159 13.266,9.343 C14.389,8.53 15.71,8.114 17.228,8.092 C18.702,8.092 20.01,8.489 21.155,9.284 C22.298,10.079 23.182,11.131 23.804,12.441 C24.427,13.753 24.737,15.121 24.737,16.55 C24.737,17.466 24.214,17.925 23.169,17.925 L12.51,17.925 C12.531,19.062 12.773,20.023 13.239,20.804 C13.704,21.586 14.326,22.17 15.108,22.559 C15.89,22.946 16.754,23.138 17.706,23.138 C19.373,23.138 20.905,22.549 22.299,21.369 C22.779,21.022 23.132,20.85 23.357,20.85 C23.671,20.85 23.915,20.966 24.09,21.2 C24.266,21.433 24.352,21.716 24.352,22.046 C24.352,22.403 24.214,22.746 23.938,23.075 C23.31,23.742 22.418,24.325 21.266,24.825 C20.113,25.325 18.872,25.575 17.543,25.575 C16.151,25.575 14.941,25.314 13.915,24.788 C12.887,24.265 12.06,23.566 11.432,22.7 C10.804,21.833 10.346,20.895 10.058,19.888 C9.77,18.884 9.619,17.867 9.603,16.837 C9.63,16.785 9.646,16.746 9.654,16.724 C9.662,16.7 9.666,16.688 9.666,16.681 C9.666,16.681 9.666,16.688 9.666,16.681 L9.666,16.681 L9.666,16.681 Z M12.51,15.787 L21.914,15.787 C21.884,14.218 21.465,12.961 20.661,12.006 C19.856,11.053 18.754,10.56 17.353,10.528 C15.927,10.528 14.78,10.991 13.909,11.911 C13.04,12.833 12.573,14.126 12.51,15.787 C12.51,15.787 12.573,14.126 12.51,15.787 L12.51,15.787 L12.51,15.787 Z" id="path22104"></path>
                        <path d="M38.594,10.396 L38.594,1.98 C38.594,1.54 38.731,1.196 39.003,0.945 C39.277,0.693 39.602,0.568 39.972,0.568 C40.385,0.568 40.727,0.693 41.002,0.944 C41.276,1.195 41.414,1.56 41.414,2.04 L41.414,24.127 C41.414,24.582 41.272,24.936 40.99,25.192 C40.709,25.448 40.368,25.575 39.971,25.575 C39.617,25.575 39.297,25.448 39.015,25.193 C38.734,24.938 38.593,24.604 38.593,24.194 L38.593,23.272 L38.528,23.272 C38.225,23.887 37.73,24.414 37.04,24.858 C36.352,25.3 35.42,25.539 34.247,25.575 C32.742,25.575 31.419,25.208 30.284,24.471 C29.147,23.737 28.267,22.711 27.639,21.395 C27.015,20.081 26.691,18.588 26.664,16.916 C26.664,15.721 26.838,14.583 27.188,13.503 C27.539,12.421 28.034,11.479 28.671,10.67 C29.31,9.865 30.075,9.233 30.967,8.777 C31.859,8.32 32.836,8.09 33.9,8.09 C35.817,8.09 37.362,8.859 38.527,10.394 L38.594,10.394 L38.594,10.394 L38.594,10.396 L38.594,10.396 Z M29.486,16.784 C29.486,18.518 29.86,19.997 30.61,21.22 C31.357,22.443 32.475,23.083 33.958,23.139 C35.141,23.139 36.098,22.833 36.834,22.218 C37.564,21.606 38.089,20.825 38.401,19.88 C38.717,18.935 38.885,17.924 38.914,16.848 C38.914,15.609 38.714,14.507 38.311,13.543 C37.911,12.58 37.352,11.835 36.639,11.313 C35.923,10.791 35.117,10.529 34.214,10.529 C33.151,10.529 32.269,10.843 31.564,11.465 C30.86,12.09 30.343,12.876 30.015,13.822 C29.689,14.767 29.514,15.755 29.486,16.784 C29.486,16.784 29.514,15.755 29.486,16.784 L29.486,16.784 L29.486,16.784 Z" id="path22106"></path>
                        <path d="M56.451,10.396 L56.451,1.98 C56.451,1.54 56.589,1.196 56.864,0.945 C57.138,0.693 57.46,0.568 57.831,0.568 C58.243,0.568 58.589,0.693 58.861,0.944 C59.136,1.195 59.272,1.56 59.272,2.04 L59.272,24.127 C59.272,24.582 59.131,24.936 58.85,25.192 C58.568,25.448 58.226,25.575 57.83,25.575 C57.476,25.575 57.156,25.448 56.875,25.193 C56.593,24.938 56.45,24.604 56.45,24.194 L56.45,23.272 L56.388,23.272 C56.084,23.887 55.589,24.414 54.9,24.858 C54.212,25.3 53.281,25.539 52.107,25.575 C50.601,25.575 49.28,25.208 48.143,24.471 C47.005,23.737 46.125,22.711 45.5,21.395 C44.876,20.081 44.55,18.588 44.524,16.916 C44.524,15.721 44.7,14.583 45.049,13.503 C45.4,12.421 45.893,11.479 46.53,10.67 C47.17,9.865 47.934,9.233 48.826,8.777 C49.718,8.32 50.695,8.09 51.758,8.09 C53.676,8.09 55.22,8.859 56.387,10.394 L56.451,10.394 L56.451,10.394 L56.451,10.396 L56.451,10.396 Z M47.347,16.784 C47.347,18.518 47.72,19.997 48.47,21.22 C49.219,22.443 50.335,23.083 51.819,23.139 C53.002,23.139 53.961,22.833 54.691,22.218 C55.426,21.606 55.949,20.825 56.262,19.88 C56.576,18.935 56.747,17.924 56.774,16.848 C56.774,15.609 56.574,14.507 56.173,13.543 C55.773,12.58 55.214,11.835 54.5,11.313 C53.784,10.791 52.977,10.529 52.076,10.529 C51.012,10.529 50.128,10.843 49.424,11.465 C48.719,12.09 48.205,12.876 47.877,13.822 C47.549,14.767 47.373,15.755 47.347,16.784 C47.347,16.784 47.373,15.755 47.347,16.784 L47.347,16.784 L47.347,16.784 Z" id="path22108"></path>
                        <path d="M71.747,10.7 L70.502,10.7 C70.103,10.7 69.781,10.586 69.539,10.359 C69.299,10.131 69.16,9.85 69.118,9.516 C69.201,8.68 69.663,8.262 70.502,8.262 L71.747,8.262 L71.747,4.447 C71.747,4.031 71.881,3.708 72.147,3.478 C72.414,3.249 72.738,3.135 73.125,3.135 C73.535,3.135 73.88,3.251 74.156,3.483 C74.43,3.715 74.571,4.06 74.571,4.518 L74.571,8.262 L75.814,8.262 C76.243,8.262 76.569,8.377 76.793,8.607 C77.018,8.836 77.131,9.138 77.131,9.516 C77.131,9.835 77.019,10.112 76.802,10.346 C76.581,10.58 76.298,10.7 75.948,10.7 L74.571,10.7 L74.571,24.188 C74.571,24.617 74.422,24.956 74.128,25.205 C73.835,25.453 73.478,25.576 73.064,25.576 C72.694,25.576 72.378,25.453 72.128,25.205 C71.876,24.956 71.747,24.597 71.747,24.127 L71.747,10.7 L71.747,10.7 L71.747,10.7 L71.747,10.7 Z" id="path22110"></path>
                    </g>
                    <circle id="circle22112" stroke-width="1.60000002" fill="#FFFFFF" cx="64.552" cy="3.490999" r="2.309"></circle>
                    <path d="M64.556,9.433001 L64.556,24.224998" id="line22114" stroke-width="3.36019993"></path>
                </g>
                <text id="guess-that-sub" fill="#000000" sketch:type="MSTextLayer" font-family="VAG Rounded" font-size="31" font-style="condensed" font-weight="normal">
                    <tspan x="0" y="29">guess that sub</tspan>
                </text>
            </g>
        </g>
        <text id="?" sketch:type="MSTextLayer" transform="translate(8.000000, 11.500000) rotate(-35.000000) translate(-8.000000, -11.500000) " font-family="VAGRounded-Light" font-size="12" font-weight="260" fill="#000000">
            <tspan x="5" y="15">?</tspan>
        </text>
        <path d="M20.7292885,5.2998936 C21.1448342,5.23379609 21.5953534,4.96226199 22.0930167,4.48528315 C22.3459902,4.24981258 22.5663391,3.98745223 22.7522307,3.69819422 C22.9404898,3.40893621 23.0815192,3.11273709 23.17255,2.80958796 C23.2622505,2.50643884 23.2938963,2.21176845 23.2649525,1.92556797 C23.2312974,1.63936749 23.1337917,1.37817995 22.9711532,1.14199752 C22.8402202,0.958300069 22.6682156,0.810436477 22.4558358,0.698402304 C22.2405093,0.586368132 22.0018368,0.518759576 21.74154,0.495574608 C21.4806017,0.472389641 21.2171281,0.499400286 20.9530551,0.576607354 C20.6909325,0.653814422 20.4553623,0.786395027 20.2473274,0.974353147 C20.115537,1.10114499 20.0394514,1.23507769 20.0179159,1.37615525 C19.9962413,1.51723282 20.0244805,1.63500632 20.1019689,1.72947929 C20.1615278,1.80295827 20.2325106,1.84349555 20.3153317,1.85109234 C20.3980813,1.85868912 20.5109285,1.82087537 20.654779,1.73764993 C21.0073011,1.54992909 21.3051058,1.47632422 21.5426898,1.5168331 C21.7791712,1.55734198 21.9764346,1.68781293 22.1311205,1.90824987 C22.3114383,2.17592329 22.3511135,2.48560906 22.2553062,2.83731646 C22.1581352,3.18902387 21.9459931,3.51581534 21.6258378,3.81770068 C21.5250612,3.91430399 21.4191365,4.00040901 21.3080652,4.07601833 C21.1978114,4.15162764 21.0831458,4.20978386 20.9638673,4.25048873 C20.8451428,4.2911936 20.7219485,4.29922354 20.5935424,4.2745788 C20.4647057,4.24993406 20.3372742,4.18224685 20.2099015,4.07151513 C20.0894688,3.95999421 19.9906379,3.88390179 19.9146599,3.84323559 C19.8382437,3.8025694 19.7698305,3.78480149 19.709775,3.78993135 C19.6497572,3.7950612 19.5905941,3.82236845 19.5324743,3.87185392 C19.4746461,3.92133939 19.391212,4.00645791 19.2829016,4.12721205 L18.4158674,5.15059824 C18.3100066,5.28342779 18.2493293,5.41906719 18.2326121,5.55752051 C18.2158002,5.69597382 18.2414373,5.81768364 18.3086447,5.92265361 C18.3745846,6.02762358 18.4556641,6.07386319 18.5529656,6.06137384 C18.6504396,6.04888449 18.7522416,5.97622612 18.8593956,5.84339657 L19.6308661,4.93774508 C19.9562852,5.24527615 20.3173106,5.36599112 20.7292885,5.2998936 Z M16.9787479,7.28752183 C16.9728678,7.45681491 17.0042948,7.59656859 17.0721322,7.70678706 C17.1385721,7.81700553 17.2224987,7.86619496 17.3251129,7.85435683 C17.4279275,7.84251871 17.5204593,7.77320476 17.603609,7.64641292 C17.6881562,7.51962108 17.7391019,7.37158084 17.7552492,7.20228776 C17.771196,7.03299468 17.7456833,6.893241 17.6778125,6.78302253 C17.6085441,6.67280406 17.5167713,6.62361463 17.4036895,6.63545275 C17.2908082,6.64729088 17.192362,6.71660482 17.1092457,6.84339667 C17.027527,6.97018851 16.9844276,7.11822875 16.9787479,7.28752183 Z" id="?-copy" fill="#000000" sketch:type="MSShapeGroup"></path>
        <path d="M35.8472649,14.208449 C36.463268,14.0804483 36.9532631,13.814451 37.3172649,13.410449 C37.6812668,13.006447 37.8632649,12.4884521 37.8632649,11.856449 C37.8632649,11.5444474 37.7992656,11.2524503 37.6712649,10.980449 C37.5432643,10.7084476 37.3632661,10.47245 37.1312649,10.272449 C36.8992638,10.072448 36.6272665,9.91844951 36.3152649,9.81044897 C36.0032634,9.70244843 35.6672667,9.64844897 35.3072649,9.64844897 C35.0272635,9.64844897 34.7512663,9.69244853 34.4792649,9.78044897 C34.2072636,9.86844941 33.9592661,9.99444815 33.7352649,10.158449 C33.5112638,10.3224498 33.3292656,10.5164479 33.1892649,10.740449 C33.0492642,10.9644501 32.975265,11.2044477 32.9672649,11.460449 C32.9672649,11.6284498 33.0172644,11.7624485 33.1172649,11.862449 C33.2172654,11.9624495 33.3392642,12.012449 33.4832649,12.012449 C33.5952655,12.012449 33.6892646,11.9844493 33.7652649,11.928449 C33.8412653,11.8724487 33.9032647,11.7684497 33.9512649,11.616449 C34.0792656,11.2564472 34.2592638,11.0024497 34.4912649,10.854449 C34.7232661,10.7064482 35.0072633,10.632449 35.3432649,10.632449 C35.751267,10.632449 36.0852636,10.7524478 36.3452649,10.992449 C36.6052662,11.2324502 36.7352649,11.552447 36.7352649,11.952449 C36.7352649,12.0804496 36.7192651,12.2084483 36.6872649,12.336449 C36.6552648,12.4644496 36.6012653,12.5884484 36.5252649,12.708449 C36.4492646,12.8284496 36.3372657,12.9364485 36.1892649,13.032449 C36.0412642,13.1284495 35.8552661,13.2004487 35.6312649,13.248449 C35.4152639,13.2884492 35.2532655,13.3284488 35.1452649,13.368449 C35.0372644,13.4084492 34.9572652,13.4544487 34.9052649,13.506449 C34.8532647,13.5584492 34.821265,13.6224486 34.8092649,13.698449 C34.7972649,13.7744494 34.7912649,13.8924482 34.7912649,14.052449 L34.7912649,15.408449 C34.7912649,15.5844499 34.8392645,15.7224485 34.9352649,15.822449 C35.0312654,15.9224495 35.1592641,15.972449 35.3192649,15.972449 C35.4792657,15.972449 35.6072645,15.9224495 35.7032649,15.822449 C35.7992654,15.7224485 35.8472649,15.5844499 35.8472649,15.408449 L35.8472649,14.208449 Z M34.7072649,17.724449 C34.7072649,17.8924498 34.7672643,18.0364484 34.8872649,18.156449 C35.0072655,18.2764496 35.1512641,18.336449 35.3192649,18.336449 C35.4872658,18.336449 35.6312643,18.2764496 35.7512649,18.156449 C35.8712655,18.0364484 35.9312649,17.8924498 35.9312649,17.724449 C35.9312649,17.5564481 35.8712655,17.4124496 35.7512649,17.292449 C35.6312643,17.1724484 35.4872658,17.112449 35.3192649,17.112449 C35.1512641,17.112449 35.0072655,17.1724484 34.8872649,17.292449 C34.7672643,17.4124496 34.7072649,17.5564481 34.7072649,17.724449 Z" id="?" fill="#000000" sketch:type="MSShapeGroup" transform="translate(35.523265, 13.992449) rotate(16.000000) translate(-35.523265, -13.992449) "></path>
        <path d="M18.8947048,40.896449 C19.5107078,40.7684483 20.0007029,40.502451 20.3647048,40.098449 C20.7287066,39.694447 20.9107048,39.1764521 20.9107048,38.544449 C20.9107048,38.2324474 20.8467054,37.9404503 20.7187048,37.668449 C20.5907041,37.3964476 20.4107059,37.16045 20.1787048,36.960449 C19.9467036,36.760448 19.6747063,36.6064495 19.3627048,36.498449 C19.0507032,36.3904484 18.7147066,36.336449 18.3547048,36.336449 C18.0747034,36.336449 17.7987061,36.3804485 17.5267048,36.468449 C17.2547034,36.5564494 17.0067059,36.6824482 16.7827048,36.846449 C16.5587036,37.0104498 16.3767055,37.2044479 16.2367048,37.428449 C16.0967041,37.6524501 16.0227048,37.8924477 16.0147048,38.148449 C16.0147048,38.3164498 16.0647043,38.4504485 16.1647048,38.550449 C16.2647053,38.6504495 16.386704,38.700449 16.5307048,38.700449 C16.6427053,38.700449 16.7367044,38.6724493 16.8127048,38.616449 C16.8887051,38.5604487 16.9507045,38.4564497 16.9987048,38.304449 C17.1267054,37.9444472 17.3067036,37.6904497 17.5387048,37.542449 C17.7707059,37.3944482 18.0547031,37.320449 18.3907048,37.320449 C18.7987068,37.320449 19.1327035,37.4404478 19.3927048,37.680449 C19.6527061,37.9204502 19.7827048,38.240447 19.7827048,38.640449 C19.7827048,38.7684496 19.7667049,38.8964483 19.7347048,39.024449 C19.7027046,39.1524496 19.6487051,39.2764484 19.5727048,39.396449 C19.4967044,39.5164496 19.3847055,39.6244485 19.2367048,39.720449 C19.088704,39.8164495 18.9027059,39.8884487 18.6787048,39.936449 C18.4627037,39.9764492 18.3007053,40.0164488 18.1927048,40.056449 C18.0847042,40.0964492 18.004705,40.1424487 17.9527048,40.194449 C17.9007045,40.2464492 17.8687048,40.3104486 17.8567048,40.386449 C17.8447047,40.4624494 17.8387048,40.5804482 17.8387048,40.740449 L17.8387048,42.096449 C17.8387048,42.2724499 17.8867043,42.4104485 17.9827048,42.510449 C18.0787052,42.6104495 18.206704,42.660449 18.3667048,42.660449 C18.5267056,42.660449 18.6547043,42.6104495 18.7507048,42.510449 C18.8467052,42.4104485 18.8947048,42.2724499 18.8947048,42.096449 L18.8947048,40.896449 Z M17.7547048,44.412449 C17.7547048,44.5804498 17.8147042,44.7244484 17.9347048,44.844449 C18.0547054,44.9644496 18.1987039,45.024449 18.3667048,45.024449 C18.5347056,45.024449 18.6787042,44.9644496 18.7987048,44.844449 C18.9187054,44.7244484 18.9787048,44.5804498 18.9787048,44.412449 C18.9787048,44.2444481 18.9187054,44.1004496 18.7987048,43.980449 C18.6787042,43.8604484 18.5347056,43.800449 18.3667048,43.800449 C18.1987039,43.800449 18.0547054,43.8604484 17.9347048,43.980449 C17.8147042,44.1004496 17.7547048,44.2444481 17.7547048,44.412449 Z" id="?-copy" fill="#000000" sketch:type="MSShapeGroup" transform="translate(18.570705, 40.680449) rotate(1.000000) translate(-18.570705, -40.680449) "></path>
        <path d="M2.768,32.208449 C3.38400308,32.0804483 3.87399818,31.814451 4.238,31.410449 C4.60200182,31.006447 4.784,30.4884521 4.784,29.856449 C4.784,29.5444474 4.72000064,29.2524503 4.592,28.980449 C4.46399936,28.7084476 4.28400116,28.47245 4.052,28.272449 C3.81999884,28.072448 3.54800156,27.9184495 3.236,27.810449 C2.92399844,27.7024484 2.5880018,27.648449 2.228,27.648449 C1.9479986,27.648449 1.67200136,27.6924485 1.4,27.780449 C1.12799864,27.8684494 0.88000112,27.9944482 0.656,28.158449 C0.43199888,28.3224498 0.2500007,28.5164479 0.11,28.740449 C-0.0300007,28.9644501 -0.10399996,29.2044477 -0.112,29.460449 C-0.112,29.6284498 -0.0620005,29.7624485 0.038,29.862449 C0.1380005,29.9624495 0.25999928,30.012449 0.404,30.012449 C0.51600056,30.012449 0.60999962,29.9844493 0.686,29.928449 C0.76200038,29.8724487 0.82399976,29.7684497 0.872,29.616449 C1.00000064,29.2564472 1.17999884,29.0024497 1.412,28.854449 C1.64400116,28.7064482 1.92799832,28.632449 2.264,28.632449 C2.67200204,28.632449 3.0059987,28.7524478 3.266,28.992449 C3.5260013,29.2324502 3.656,29.552447 3.656,29.952449 C3.656,30.0804496 3.64000016,30.2084483 3.608,30.336449 C3.57599984,30.4644496 3.52200038,30.5884484 3.446,30.708449 C3.36999962,30.8284496 3.25800074,30.9364485 3.11,31.032449 C2.96199926,31.1284495 2.77600112,31.2004487 2.552,31.248449 C2.33599892,31.2884492 2.17400054,31.3284488 2.066,31.368449 C1.95799946,31.4084492 1.87800026,31.4544487 1.826,31.506449 C1.77399974,31.5584492 1.74200006,31.6224486 1.73,31.698449 C1.71799994,31.7744494 1.712,31.8924482 1.712,32.052449 L1.712,33.408449 C1.712,33.5844499 1.75999952,33.7224485 1.856,33.822449 C1.95200048,33.9224495 2.0799992,33.972449 2.24,33.972449 C2.4000008,33.972449 2.52799952,33.9224495 2.624,33.822449 C2.72000048,33.7224485 2.768,33.5844499 2.768,33.408449 L2.768,32.208449 Z M1.628,35.724449 C1.628,35.8924498 1.6879994,36.0364484 1.808,36.156449 C1.9280006,36.2764496 2.07199916,36.336449 2.24,36.336449 C2.40800084,36.336449 2.5519994,36.2764496 2.672,36.156449 C2.7920006,36.0364484 2.852,35.8924498 2.852,35.724449 C2.852,35.5564481 2.7920006,35.4124496 2.672,35.292449 C2.5519994,35.1724484 2.40800084,35.112449 2.24,35.112449 C2.07199916,35.112449 1.9280006,35.1724484 1.808,35.292449 C1.6879994,35.4124496 1.628,35.5564481 1.628,35.724449 Z" id="?" fill="#000000" sketch:type="MSShapeGroup" transform="translate(2.444000, 31.992449) rotate(16.000000) translate(-2.444000, -31.992449) "></path>
    </g>
</svg>